<svg width="1017" height="104" viewBox="0 0 1017 104" fill="none" xmlns="http://www.w3.org/2000/svg">
<path fill-rule="evenodd" clip-rule="evenodd" d="M1017 0L974.333 13.4815C931.667 26.963 846.333 53.9259 761 55.8519C675.667 57.7778 590.333 34.6667 505 23.1111C419.667 11.5556 334.333 11.5556 249 15.4074C163.667 19.2593 78.3333 26.963 35.6666 30.8148L-7 34.6667V104H35.6666C78.3333 104 163.667 104 249 104C334.333 104 419.667 104 505 104C590.333 104 675.667 104 761 104C846.333 104 931.667 104 974.333 104H1017V0Z" fill="#3F3D56"/>
</svg>
